<svg width="512" height="512" xmlns="http://www.w3.org/2000/svg" xmlns:xlink="http://www.w3.org/1999/xlink" overflow="hidden"><defs><clipPath id="clip0"><rect x="0" y="0" width="512" height="512"/></clipPath></defs><g clip-path="url(#clip0)"><path d="M256 498.162C190.27 498.162 103.147 483.113 73.9494 440.694 32.0277 379.807 131.335 230.559 184.687 150.403L188.672 144.419C190.343 142.001 193.326 140.855 196.186 141.533 196.68 141.636 197.183 141.68 197.687 141.665L314.313 141.665C314.882 141.675 315.45 141.621 316.008 141.506 318.817 140.844 321.741 142.008 323.328 144.419L327.313 150.403C380.665 230.559 479.972 379.773 438.058 440.694 408.853 483.113 321.73 498.162 256 498.162ZM197.916 155.503 196.207 158.07C148.335 229.992 48.7369 379.648 85.3449 432.848 106.551 463.637 175.125 484.324 256 484.324 336.875 484.324 405.449 463.637 426.662 432.848 463.27 379.648 363.7 229.992 315.8 158.07L314.091 155.503Z" fill="#1B6AB5"/><path d="M205.789 123.606C203.281 123.609 200.967 122.254 199.742 120.064L151.905 34.4908C150.043 31.1537 151.239 26.9394 154.577 25.0778 155.015 24.8333 155.479 24.6372 155.959 24.493L179.338 17.4772C196.316 12.3422 214.534 13.1253 231.009 19.6982 246.007 25.6672 262.699 25.7956 277.788 20.0579L280.77 18.9578C296.797 12.8915 314.366 12.2234 330.807 17.0551L356.089 24.4791C359.755 25.5566 361.854 29.402 360.776 33.0682 360.629 33.5683 360.426 34.0502 360.171 34.5047L312.168 120.071C310.225 123.361 305.983 124.454 302.692 122.511 299.505 120.629 298.363 116.572 300.101 113.304L343.87 35.2865 326.905 30.2979C313.349 26.3193 298.865 26.8757 285.654 31.8824L282.679 32.9825C264.355 39.9533 244.081 39.7853 225.875 32.512 212.309 27.1354 197.323 26.5015 183.351 30.7131L168.192 35.2865 211.823 113.332C213.687 116.667 212.495 120.883 209.16 122.747 208.13 123.323 206.97 123.626 205.789 123.627Z" fill="#1B6AB5"/><path d="M314.313 155.503 197.687 155.503C196.23 155.517 194.776 155.375 193.349 155.081L193.024 155.018C180.642 152.632 172.539 140.66 174.925 128.278 177.02 117.405 186.616 109.603 197.687 109.769L314.313 109.769C326.942 109.837 337.124 120.13 337.056 132.759 336.998 143.476 329.505 152.714 319.031 154.984 317.483 155.332 315.9 155.506 314.313 155.503ZM195.577 141.409C195.785 141.443 195.992 141.485 196.186 141.533 196.68 141.636 197.183 141.68 197.687 141.665L314.313 141.665C314.882 141.675 315.45 141.621 316.008 141.506 317.776 141.147 319.401 140.282 320.685 139.015 324.227 135.532 324.276 129.837 320.793 126.295 319.086 124.559 316.748 123.588 314.313 123.606L197.687 123.606C195.265 123.649 192.952 124.625 191.232 126.333 189.561 128.001 188.635 130.274 188.665 132.636 188.675 136.803 191.528 140.424 195.577 141.409Z" fill="#1B6AB5"/><path d="M266.607 340.355 223.481 340.355C219.66 340.355 216.562 337.258 216.562 333.437L216.562 264.116C216.562 260.295 219.66 257.197 223.481 257.197L266.6 257.197C289.563 257.493 307.939 276.349 307.643 299.313 307.352 321.858 289.146 340.065 266.6 340.355ZM230.407 326.518 266.607 326.518C281.928 326.276 294.152 313.659 293.91 298.338 293.673 283.358 281.587 271.271 266.607 271.035L230.4 271.035Z" fill="#1B6AB5"/><path d="M277.622 409.676 223.481 409.676C219.66 409.676 216.562 406.578 216.562 402.757L216.562 333.437C216.562 329.615 219.66 326.518 223.481 326.518L277.615 326.518C300.578 326.814 318.954 345.67 318.658 368.633 318.367 391.179 300.16 409.385 277.615 409.676ZM230.407 395.838 277.622 395.838C292.943 395.596 305.167 382.98 304.925 367.659 304.688 352.679 292.602 340.592 277.622 340.355L230.4 340.355Z" fill="#1B6AB5"/><path d="M223.481 271.035 211.11 271.035C207.289 271.035 204.191 267.937 204.191 264.116 204.191 260.295 207.289 257.197 211.11 257.197L223.481 257.197C227.302 257.197 230.4 260.295 230.4 264.116 230.4 267.937 227.302 271.035 223.481 271.035Z" fill="#1B6AB5"/><path d="M230.4 271.035C226.579 271.035 223.481 267.937 223.481 264.116L223.481 248.521C223.481 244.699 226.579 241.602 230.4 241.602 234.221 241.602 237.319 244.699 237.319 248.521L237.319 264.116C237.319 267.937 234.221 271.035 230.4 271.035Z" fill="#1B6AB5"/><path d="M257.439 271.035C253.618 271.035 250.52 267.937 250.52 264.116L250.52 248.521C250.52 244.699 253.618 241.602 257.439 241.602 261.26 241.602 264.358 244.699 264.358 248.521L264.358 264.116C264.358 267.937 261.26 271.035 257.439 271.035Z" fill="#1B6AB5"/><path d="M230.4 425.271C226.579 425.271 223.481 422.174 223.481 418.352L223.481 402.757C223.481 398.936 226.579 395.838 230.4 395.838 234.221 395.838 237.319 398.936 237.319 402.757L237.319 418.352C237.319 422.174 234.221 425.271 230.4 425.271Z" fill="#1B6AB5"/><path d="M257.439 425.271C253.618 425.271 250.52 422.174 250.52 418.352L250.52 402.757C250.52 398.936 253.618 395.838 257.439 395.838 261.26 395.838 264.358 398.936 264.358 402.757L264.358 418.352C264.358 422.174 261.26 425.271 257.439 425.271Z" fill="#1B6AB5"/><path d="M223.481 409.676 211.11 409.676C207.289 409.676 204.191 406.578 204.191 402.757 204.191 398.936 207.289 395.838 211.11 395.838L223.481 395.838C227.302 395.838 230.4 398.936 230.4 402.757 230.4 406.578 227.302 409.676 223.481 409.676Z" fill="#1B6AB5"/></g></svg>