<svg width="480" height="480" xmlns="http://www.w3.org/2000/svg" xmlns:xlink="http://www.w3.org/1999/xlink" overflow="hidden"><defs><clipPath id="clip0"><rect x="0" y="0" width="480" height="480"/></clipPath></defs><g clip-path="url(#clip0)"><path d="M416 0 208 0C194.745 0 184 10.745 184 24L184 116.056 102.544 178.584C93.816 184.061 87.552 192.71 85.072 202.712L42.152 374.4C40.72 380.116 39.997 385.987 40 391.88L40 480 56 480 56 391.88C55.997 387.295 56.559 382.728 57.672 378.28L100.6 206.576C102.119 200.502 105.963 195.268 111.304 192 111.536 191.856 111.76 191.696 111.984 191.536L183.984 136.256 183.984 236.688 154.328 266.344 165.64 277.656 269.368 173.944C277.292 166.022 290.138 166.024 298.06 173.948 301.863 177.752 304 182.91 304 188.288L304 189.536C304.01 194.307 302.329 198.927 299.256 202.576L234.064 274.632C232.451 276.419 231.728 278.837 232.096 281.216L232.704 285.216C240.704 337.296 211.184 382.52 157.504 400.416L162.56 415.616C185.957 408.191 206.869 394.488 223.016 376L280.616 376 250.496 419.024C240.326 433.605 225.959 444.744 209.304 450.96L173.176 464.504C170.058 465.681 167.995 468.667 168 472L168 480 184 480 184 477.544 214.936 465.944C234.618 458.592 251.598 445.428 263.624 428.2L300.168 376 416 376C429.255 376 440 365.255 440 352L440 24C440 10.745 429.255 0 416 0ZM424 352C424 356.418 420.418 360 416 360L234.4 360C247.97 336.691 252.954 309.367 248.488 282.768L248.488 282.544 311.264 213.152C316.898 206.573 319.996 198.198 320 189.536L320 188.288C320.007 168.251 303.769 152.002 283.732 151.996 274.101 151.993 264.863 155.819 258.056 162.632L200 220.688 200 24C200 19.582 203.582 16 208 16L416 16C420.418 16 424 19.582 424 24L424 352Z" fill="#1B6AB5"/><path d="M394.512 91.856C398.064 85.839 399.957 78.987 400 72 400 49.909 382.091 32 360 32 337.909 32 320 49.909 320 72 320.043 78.987 321.936 85.839 325.488 91.856 314.327 110.88 320.702 135.349 339.726 146.51 345.873 150.116 352.873 152.012 360 152 382.056 152.036 399.966 134.186 400.002 112.13 400.014 105.003 398.118 98.003 394.512 91.856ZM367.63 134.812C365.168 135.621 362.591 136.023 360 136 346.869 136.122 336.126 125.577 336.004 112.446 335.98 109.85 336.381 107.267 337.192 104.8 350.872 114.413 369.112 114.413 382.792 104.8 386.893 117.274 380.104 130.711 367.63 134.812ZM360 96C346.745 96 336 85.255 336 72 336 58.745 346.745 48 360 48 373.255 48 384 58.745 384 72 384 85.255 373.255 96 360 96Z" fill="#1B6AB5"/><path d="M216 48 232 48 232 168 216 168Z" fill="#1B6AB5"/><path d="M248 56 264 56 264 136 248 136Z" fill="#1B6AB5"/><path d="M304 240 320 240 320 272 304 272Z" fill="#1B6AB5"/><path d="M304 288 320 288 320 328 304 328Z" fill="#1B6AB5"/><path d="M360 176 376 176 376 336 360 336Z" fill="#1B6AB5"/><path d="M392 176 408 176 408 336 392 336Z" fill="#1B6AB5"/></g></svg>