<svg width="589" height="589" xmlns="http://www.w3.org/2000/svg" xmlns:xlink="http://www.w3.org/1999/xlink" overflow="hidden"><defs><clipPath id="clip0"><rect x="0" y="0" width="589" height="589"/></clipPath></defs><g clip-path="url(#clip0)"><path d="M451.312 97.649C451.569 97.6676 451.825 97.6862 452.086 97.6862 452.529 97.6862 452.971 97.649 453.405 97.5884 465.002 97.826 474.284 107.285 474.298 118.882 474.298 124.152 478.571 128.425 483.841 128.425 489.111 128.425 493.383 124.152 493.383 118.882 493.36 99.9135 480.155 83.5026 461.629 79.4209L461.629 70.2509C461.629 64.981 457.356 60.7082 452.086 60.7082 446.816 60.7082 442.543 64.981 442.543 70.2509L442.543 79.8542C422.955 85.0915 410.281 104.042 412.923 124.148 415.565 144.254 432.702 159.285 452.981 159.285 464.755 159.285 474.298 168.833 474.298 180.607 474.298 192.377 464.755 201.925 452.981 201.925 441.206 201.925 431.663 192.377 431.663 180.607 431.663 175.337 427.39 171.064 422.121 171.064 416.851 171.064 412.578 175.337 412.578 180.607 412.601 198.891 424.884 214.887 442.543 219.635L442.543 230.091C442.543 235.361 446.816 239.634 452.086 239.634 457.356 239.634 461.629 235.361 461.629 230.091L461.629 220.073C481.781 215.661 495.373 196.771 493.15 176.26 490.932 155.749 473.613 140.204 452.981 140.209 441.532 140.214 432.125 131.174 431.673 119.735 431.225 108.296 439.897 98.5436 451.312 97.6536Z" fill="#1B6AB5"/><path d="M453.526 14.0524C394.82 14.0524 344.721 52.3584 325.953 103.65L89.1041 103.65C83.8575 103.65 79.5987 108.38 79.5614 113.622L77.3062 448.381 9.79433 448.381C4.5244 448.381-6.9924e-14 452.197-6.9924e-14 457.476L-6.9924e-14 499.957C0.121147 539.95 31.6196 572.804 71.5703 574.612L71.5703 574.822 366.202 574.822 366.202 574.542C368.587 574.631 369.57 574.822 371.08 574.822L371.285 574.822C412.634 574.757 446.122 541.217 446.122 499.869L446.122 285.083C448.507 285.214 451.033 285.283 453.502 285.283 528.209 285.283 589.001 224.374 589.001 149.663 589.001 74.9571 528.237 14.0524 453.526 14.0524ZM75.2001 555.736 75.1395 555.736C44.2702 555.694 19.2252 530.733 19.0854 499.859L19.0854 467.466 295.824 467.466 295.824 499.724C295.838 519.639 303.792 538.729 317.92 552.768 318.921 553.77 320.165 554.544 321.214 555.736ZM427.036 499.859C427.041 530.677 402.089 555.676 371.276 555.736L371.094 555.736C340.155 555.68 315.063 530.668 314.909 499.734L314.909 457.476C314.989 455.035 314.057 452.672 312.328 450.948 310.599 449.224 308.237 448.297 305.8 448.381L96.3916 448.381 98.5816 122.736 320.655 122.736C318.963 131.472 318.087 140.344 318.041 149.239 318.022 168.05 321.945 186.651 329.559 203.849L239.425 203.849C234.151 203.849 229.882 208.122 229.882 213.392 229.882 218.662 234.151 222.934 239.425 222.934L339.913 222.934C359.599 253.892 391.069 275.475 427.036 282.697ZM453.526 266.203C389.243 266.203 337.126 214.091 337.131 149.803 337.131 85.5155 389.243 33.4034 453.53 33.4034 517.813 33.4034 569.925 85.5202 569.925 149.803 569.855 214.058 517.785 266.133 453.526 266.203Z" fill="#1B6AB5"/><path d="M178.171 267.358C161.327 267.358 147.628 280.624 147.628 296.932 147.628 313.241 161.327 326.506 178.171 326.506 195.015 326.506 208.719 313.241 208.719 296.932 208.719 280.624 195.015 267.358 178.171 267.358ZM178.171 307.421C171.848 307.421 166.713 302.715 166.713 296.932 166.713 291.145 171.853 286.444 178.171 286.444 184.489 286.444 189.633 291.15 189.633 296.932 189.633 302.715 184.489 307.421 178.171 307.421Z" fill="#1B6AB5"/><path d="M229.882 296.89C229.882 302.16 234.151 306.433 239.425 306.433L366.649 306.433C371.919 306.433 376.192 302.16 376.192 296.89 376.192 291.62 371.919 287.348 366.649 287.348L239.425 287.348C234.151 287.348 229.882 291.62 229.882 296.89Z" fill="#1B6AB5"/><path d="M178.171 184.405C161.327 184.405 147.628 197.675 147.628 213.983 147.628 230.292 161.327 243.557 178.171 243.557 195.015 243.557 208.719 230.292 208.719 213.983 208.719 197.675 195.015 184.405 178.171 184.405ZM178.171 224.472C171.848 224.472 166.713 219.766 166.713 213.983 166.713 208.201 171.853 203.49 178.171 203.49 184.489 203.49 189.633 208.196 189.633 213.983 189.633 219.766 184.489 224.477 178.171 224.477Z" fill="#1B6AB5"/><path d="M178.171 350.302C161.327 350.302 147.628 363.568 147.628 379.876 147.628 396.185 161.327 409.451 178.171 409.451 195.015 409.451 208.719 396.185 208.719 379.876 208.719 363.568 195.015 350.302 178.171 350.302ZM178.171 390.365C171.848 390.365 166.713 385.664 166.713 379.876 166.713 374.094 171.853 369.388 178.171 369.388 184.489 369.388 189.633 374.094 189.633 379.876 189.633 385.659 184.489 390.365 178.171 390.365Z" fill="#1B6AB5"/><path d="M366.649 370.846 239.425 370.846C234.151 370.846 229.882 375.119 229.882 380.389 229.882 385.659 234.151 389.932 239.425 389.932L366.649 389.932C371.919 389.932 376.192 385.659 376.192 380.389 376.192 375.119 371.919 370.846 366.649 370.846Z" fill="#1B6AB5"/></g></svg>