<svg width="512" height="512" xmlns="http://www.w3.org/2000/svg" xmlns:xlink="http://www.w3.org/1999/xlink" overflow="hidden"><defs><clipPath id="clip0"><rect x="0" y="0" width="512" height="512"/></clipPath></defs><g clip-path="url(#clip0)"><path d="M192 48C178.745 48 168 58.7452 168 72 168 85.2548 178.745 96 192 96 205.255 96 216 85.2548 216 72 216 58.7452 205.255 48 192 48ZM192 80C187.582 80 184 76.4183 184 72 184 67.5817 187.582 64 192 64 196.418 64 200 67.5817 200 72 200 76.4183 196.418 80 192 80Z" fill="#1B6AB5"/><path d="M136 160 88 160C83.5817 160 80 163.582 80 168L80 216C80 220.418 83.5817 224 88 224L136 224C140.418 224 144 220.418 144 216L144 168C144 163.582 140.418 160 136 160ZM128 208 96 208 96 176 128 176Z" fill="#1B6AB5"/><path d="M160 160 208 160 208 176 160 176Z" fill="#1B6AB5"/><path d="M160 208 208 208 208 224 160 224Z" fill="#1B6AB5"/><path d="M488 272 368 272 368 88C368 83.5817 364.418 80 360 80L272 80 272 72C271.96 58.7616 261.238 48.0395 248 48 243.582 48 240 44.4183 240 40 239.96 26.7616 229.238 16.0395 216 16L168 16C154.762 16.0395 144.04 26.7616 144 40 144 44.4183 140.418 48 136 48 122.762 48.0395 112.04 58.7616 112 72L112 80 24 80C19.5817 80 16 83.5817 16 88L16 488C16 492.418 19.5817 496 24 496L488 496C492.418 496 496 492.418 496 488L496 280C496 275.582 492.418 272 488 272ZM272 96 352 96 352 272 336 272 336 136C335.96 122.762 325.238 112.04 312 112L272 112ZM128 72C128 67.5817 131.582 64 136 64 149.238 63.9605 159.96 53.2384 160 40 160 35.5817 163.582 32 168 32L216 32C220.418 32 224 35.5817 224 40 224.04 53.2384 234.762 63.9605 248 64 252.418 64 256 67.5817 256 72L256 128 128 128ZM80 480 32 480 32 96 112 96 112 112 72 112C58.7616 112.04 48.0395 122.762 48 136L48 440C48.0395 453.238 58.7616 463.96 72 464L80 464ZM80 280 80 448 72 448C67.5817 448 64 444.418 64 440L64 136C64 131.582 67.5817 128 72 128L112 128 112 136C112 140.418 115.582 144 120 144L264 144C268.418 144 272 140.418 272 136L272 128 312 128C316.418 128 320 131.582 320 136L320 272 88 272C83.5817 272 80 275.582 80 280ZM480 480 96 480 96 288 480 288Z" fill="#1B6AB5"/><path d="M296 432C322.51 432 344 410.51 344 384 344 357.49 322.51 336 296 336 269.49 336 248 357.49 248 384 248.026 410.499 269.501 431.974 296 432ZM296 352C313.673 352 328 366.327 328 384 328 401.673 313.673 416 296 416 278.327 416 264 401.673 264 384 264 366.327 278.327 352 296 352Z" fill="#1B6AB5"/><path d="M456 336C442.762 335.96 432.04 325.238 432 312 432 307.582 428.418 304 424 304L152 304C147.582 304 144 307.582 144 312 143.96 325.238 133.238 335.96 120 336 115.582 336 112 339.582 112 344L112 424C112 428.418 115.582 432 120 432 133.238 432.04 143.96 442.762 144 456 144 460.418 147.582 464 152 464L424 464C428.418 464 432 460.418 432 456 432.04 442.762 442.762 432.04 456 432 460.418 432 464 428.418 464 424L464 344C464 339.582 460.418 336 456 336ZM448 416.8C432.296 420.024 420.024 432.296 416.8 448L159.2 448C155.976 432.296 143.704 420.024 128 416.8L128 351.2C143.704 347.976 155.976 335.704 159.2 320L416.8 320C420.024 335.704 432.296 347.976 448 351.2Z" fill="#1B6AB5"/></g></svg>