<svg width="589" height="589" xmlns="http://www.w3.org/2000/svg" xmlns:xlink="http://www.w3.org/1999/xlink" overflow="hidden"><defs><clipPath id="clip0"><rect x="0" y="0" width="589" height="589"/></clipPath></defs><g clip-path="url(#clip0)"><path d="M176.702 393.89 117.801 393.89C112.38 393.89 107.984 398.285 107.984 403.707L107.984 462.607C107.984 468.029 112.38 472.424 117.801 472.424L176.702 472.424C182.123 472.424 186.519 468.029 186.519 462.607L186.519 403.707C186.519 398.285 182.123 393.89 176.702 393.89ZM166.885 452.791 127.618 452.791 127.618 413.524 166.885 413.524Z" fill="#1B6AB5"/><path d="M314.137 276.089 215.969 276.089C205.126 276.089 196.335 284.88 196.335 295.722L196.335 334.989C196.335 345.837 205.126 354.623 215.969 354.623L314.137 354.623C324.979 354.623 333.77 345.837 333.77 334.989L333.77 295.722C333.77 284.88 324.979 276.089 314.137 276.089ZM314.137 305.539 274.87 305.539 274.87 295.722 314.137 295.722ZM255.236 295.722 255.236 305.539 215.969 305.539 215.969 295.722ZM215.969 325.173 255.236 325.173 255.236 334.989 215.969 334.989ZM274.87 334.989 274.87 325.173 314.137 325.173 314.137 334.989Z" fill="#1B6AB5"/><path d="M245.419 423.34 225.786 423.34 225.786 442.974 235.602 442.974 235.602 462.607 225.786 462.607 225.786 482.241 245.419 482.241C250.841 482.241 255.236 477.845 255.236 472.424L255.236 433.157C255.236 427.736 250.841 423.34 245.419 423.34Z" fill="#1B6AB5"/><path d="M471.205 442.974C476.626 442.974 481.022 447.369 481.022 452.791L500.655 452.791C500.603 440.357 492.746 429.294 481.022 425.147L481.022 413.524 461.388 413.524 461.388 425.147C447.876 429.907 439.765 443.722 442.191 457.838 444.621 471.959 456.878 482.27 471.205 482.241 476.626 482.241 481.022 486.636 481.022 492.058 481.022 497.479 476.626 501.874 471.205 501.874 465.784 501.874 461.388 497.479 461.388 492.058L441.755 492.058C441.807 504.496 449.664 515.559 461.388 519.706L461.388 531.325 481.022 531.325 481.022 519.706C494.534 514.946 502.645 501.132 500.219 487.01 497.789 472.894 485.532 462.583 471.205 462.607 465.784 462.607 461.388 458.212 461.388 452.791 461.388 447.369 465.784 442.974 471.205 442.974Z" fill="#1B6AB5"/><path d="M471.205 384.073C422.409 384.073 382.854 423.633 382.854 472.424 382.854 521.22 422.409 560.775 471.205 560.775 520.001 560.775 559.556 521.22 559.556 472.424 559.498 423.657 519.977 384.136 471.205 384.073ZM471.205 541.142C433.251 541.142 402.488 510.378 402.488 472.424 402.488 434.475 433.251 403.707 471.205 403.707 509.159 403.707 539.922 434.475 539.922 472.424 539.879 510.359 509.14 541.098 471.205 541.142Z" fill="#1B6AB5"/><path d="M471.205 354.623C464.624 354.666 458.057 355.26 451.571 356.401L451.571 270.337 469.173 287.938C481.137 299.907 500.54 299.907 512.504 287.938 524.469 275.974 524.469 256.575 512.504 244.606L451.571 183.673 451.571 60.1198C462.414 60.1198 471.205 51.3336 471.205 40.4863L471.205 20.8527C471.205 10.0102 462.414 1.21918 451.571 1.21918L353.404 1.21918C342.561 1.21918 333.77 10.0102 333.77 20.8527L333.77 40.4863C333.77 51.3336 342.561 60.1198 353.404 60.1198L353.404 85.5054 285.875 17.9767C274.222 6.85615 255.883 6.85615 244.231 17.9767L17.6012 244.606C5.63697 256.575 5.63697 275.974 17.6012 287.938 29.5654 299.907 48.9688 299.907 60.933 287.938L78.5342 270.337 78.5342 462.607C56.8491 462.607 39.2671 480.189 39.2671 501.874 17.582 501.874 0 519.456 0 541.142 0 546.563 4.3955 550.958 9.81677 550.958L383.65 550.958C419.763 591.218 478.663 601.686 526.439 576.344 574.219 551.001 598.583 496.367 585.507 443.889 572.436 391.412 525.288 354.589 471.205 354.623ZM353.404 20.8527 451.571 20.8527 451.571 40.4863 353.404 40.4863ZM373.037 60.1198 431.938 60.1198 431.938 164.04 373.037 105.139ZM47.0515 274.056C42.7518 278.356 35.7823 278.356 31.4827 274.056 27.1831 269.757 27.1831 262.787 31.4827 258.488L258.112 31.8582C261.947 28.0284 268.159 28.0284 271.994 31.8582L498.623 258.488C502.923 262.787 502.923 269.757 498.623 274.056 494.323 278.356 487.354 278.356 483.054 274.056L285.875 76.8773C274.376 65.3829 255.73 65.3829 244.231 76.8773ZM258.112 90.7589C261.947 86.929 268.159 86.929 271.994 90.7589L418.056 236.822 112.049 236.822ZM22.2747 531.325C27.4371 522.419 38.6296 519.039 47.8568 523.612 51.6291 525.467 56.1636 524.72 59.1355 521.748 62.1122 518.771 62.8599 514.237 61.0001 510.464 59.6484 507.804 58.9294 504.861 58.9006 501.874 58.8575 492.297 65.7599 484.096 75.2076 482.505 84.6553 480.913 93.8633 486.402 96.9598 495.466 98.3834 499.55 102.309 502.22 106.628 502.042 107.088 502.047 107.543 501.994 107.984 501.874 125.883 501.903 141.509 514.002 146.015 531.325ZM215.969 531.325 215.969 393.89 314.137 393.89 314.137 531.325ZM333.77 531.325 333.77 384.073C333.77 378.652 329.375 374.256 323.953 374.256L206.152 374.256C200.731 374.256 196.335 378.652 196.335 384.073L196.335 531.325 166.013 531.325C161.483 504.693 139.443 484.542 112.509 482.418 109.082 476.417 104.135 471.427 98.1677 467.938L98.1677 256.455 431.938 256.455 431.938 361.497C398.897 373.082 372.754 398.818 360.646 431.671 348.538 464.525 351.726 501.069 369.346 531.325ZM471.205 570.592C416.987 570.592 373.037 526.642 373.037 472.424 373.037 418.211 416.987 374.256 471.205 374.256 525.422 374.256 569.373 418.211 569.373 472.424 569.315 526.618 525.399 570.534 471.205 570.592Z" fill="#1B6AB5"/></g></svg>