<svg width="512" height="512" xmlns="http://www.w3.org/2000/svg" xmlns:xlink="http://www.w3.org/1999/xlink" overflow="hidden"><defs><clipPath id="clip0"><rect x="0" y="0" width="512" height="512"/></clipPath></defs><g clip-path="url(#clip0)"><path d="M472 176C465.831 176 460.256 178.404 456 182.242 451.744 178.404 446.169 176 440 176 433.831 176 428.256 178.404 424 182.242 419.744 178.404 414.169 176 408 176 405.181 176 402.515 176.578 400 177.474L400 120C400 106.766 389.234 96 376 96 362.766 96 352 106.766 352 120L352 221.188 321.75 259C320.617 260.422 320 262.18 320 264L320 312C320 314.125 320.844 316.156 322.344 317.656L344 339.312 344 368C344 372.422 347.578 376 352 376L472 376C476.422 376 480 372.422 480 368L480 339.312 493.656 325.656C495.156 324.156 496 322.125 496 320L496 200C496 186.766 485.234 176 472 176ZM464 360 360 360 360 344 464 344ZM480 316.688 468.688 328 355.312 328 336 308.688 336 266.805 352 246.809 352 272 368 272 368 120C368 115.586 371.586 112 376 112 380.414 112 384 115.586 384 120L384 200 384 240 400 240 400 200C400 195.586 403.586 192 408 192 412.414 192 416 195.586 416 200L416 240 432 240 432 200C432 195.586 435.586 192 440 192 444.414 192 448 195.586 448 200L448 240 464 240 464 200C464 195.586 467.586 192 472 192 476.414 192 480 195.586 480 200Z" fill="#1B6AB5"/><path d="M137.531 332.703C139.289 335.133 142.234 336.367 145.227 335.906 148.188 335.445 150.641 333.375 151.586 330.531L209.484 156.852 240.844 219.578C242.117 222.125 244.656 223.805 247.5 223.984 250.492 224.094 253.07 222.805 254.656 220.437L368 50.4218 368 80 384 80 384 24C384 21.4922 382.82 19.125 380.82 17.6094 378.82 16.1015 376.203 15.625 373.805 16.3046L317.805 32.3046 322.195 47.6953 357.269 37.6753 248.992 200.094 215.156 132.422C213.711 129.524 210.758 127.742 207.43 128.024 204.203 128.25 201.438 130.399 200.414 133.469L141.328 310.719 86.4688 235.297C84.6719 232.82 81.6563 231.57 78.6016 232.125 75.5938 232.656 73.1485 234.86 72.3047 237.805L24.3047 405.805 39.6954 410.195 83.1798 257.977Z" fill="#1B6AB5"/><path d="M408 292.688 397.656 282.344 386.344 293.656 402.344 309.656C403.906 311.219 405.953 312 408 312 410.047 312 412.094 311.219 413.656 309.656L453.656 269.656 442.344 258.344Z" fill="#1B6AB5"/><path d="M336 400C336 395.578 332.422 392 328 392L304 392 304 352C304 347.578 300.422 344 296 344L272 344 272 280C272 275.578 268.422 272 264 272L232 272C227.578 272 224 275.578 224 280L224 360 208 360 208 352C208 347.578 204.422 344 200 344L168 344C163.578 344 160 347.578 160 352L160 408 144 408 144 392C144 387.578 140.422 384 136 384L104 384C99.5782 384 96 387.578 96 392L96 432 72 432C67.5782 432 64 435.578 64 440L64 480 48 480 48 496 72 496 104 496 136 496 168 496 200 496 232 496 264 496 296 496 328 496 352 496 352 480 336 480ZM80 448 96 448 96 480 80 480ZM112 440 112 400 128 400 128 416 128 480 112 480ZM144 424 160 424 160 480 144 480ZM176 416 176 360 192 360 192 368 192 480 176 480ZM208 376 224 376 224 480 208 480ZM240 368 240 288 256 288 256 352 256 480 240 480ZM272 360 288 360 288 400 288 480 272 480ZM304 480 304 408 320 408 320 480Z" fill="#1B6AB5"/></g></svg>