<!DOCTYPE svg PUBLIC "-//W3C//DTD SVG 20010904//EN" "http://www.w3.org/TR/2001/REC-SVG-20010904/DTD/svg10.dtd">
<svg version="1.0" xmlns="http://www.w3.org/2000/svg" width="578px" height="578px" viewBox="0 0 5780 5780" preserveAspectRatio="xMidYMid meet">
<g id="layer101" fill="#1f72c1" stroke="none">
<path d="M3775 5715 c-27 -8 -62 -15 -76 -15 -46 0 -241 -56 -334 -95 -318 -136 -585 -390 -746 -710 -60 -119 -71 -153 -111 -315 -11 -47 -22 -91 -24 -97 -6 -23 -41 -13 -90 26 -46 36 -210 141 -221 141 -4 0 -84 33 -168 70 -43 19 -160 45 -315 72 -98 16 -266 16 -360 0 -214 -37 -287 -56 -375 -97 -38 -18 -81 -35 -93 -40 -30 -9 -190 -108 -257 -159 -132 -100 -286 -277 -382 -441 -65 -111 -130 -285 -159 -424 -22 -107 -26 -152 -26 -301 0 -99 5 -202 12 -235 33 -165 45 -209 91 -322 80 -198 187 -359 336 -504 129 -126 294 -238 424 -289 30 -12 68 -28 84 -35 79 -35 118 -44 341 -84 73 -13 299 -14 357 -2 23 5 85 17 137 26 92 16 303 91 345 121 20 15 18 18 -48 147 -84 163 -228 437 -242 459 -9 16 -16 15 -85 -8 -41 -14 -89 -29 -106 -35 -17 -5 -92 -9 -168 -9 -120 0 -147 3 -219 26 -137 44 -247 114 -353 225 -110 116 -156 200 -193 351 -53 215 3 450 151 640 100 128 219 212 373 263 96 32 113 35 224 35 79 0 134 -5 158 -14 21 -8 59 -20 86 -26 91 -24 255 -133 345 -230 34 -37 111 -154 132 -203 34 -78 60 -194 60 -273 l0 -76 -27 17 c-16 10 -55 37 -88 62 -56 41 -178 128 -340 243 -38 27 -75 50 -80 50 -6 0 -46 -51 -90 -112 -43 -62 -112 -159 -152 -215 -40 -56 -73 -110 -73 -120 0 -12 38 -44 108 -92 106 -73 184 -129 252 -181 19 -15 69 -50 110 -78 41 -28 93 -64 115 -80 86 -61 251 -178 275 -195 49 -34 120 -85 146 -106 l27 -21 -51 -70 c-51 -69 -112 -171 -144 -240 -29 -62 -56 -140 -47 -134 5 3 9 0 9 -5 0 -6 -4 -11 -8 -11 -5 0 -9 -6 -9 -12 -1 -7 -11 -49 -22 -93 -41 -152 -58 -360 -42 -503 19 -170 39 -259 88 -387 79 -211 177 -365 329 -519 205 -208 483 -363 723 -405 34 -6 89 -16 124 -22 141 -25 383 -11 587 33 51 11 233 80 272 103 16 10 7 31 -85 205 -57 107 -127 241 -157 298 -37 70 -59 102 -71 102 -9 0 -39 -9 -65 -20 -90 -39 -257 -58 -359 -40 -132 22 -194 42 -285 93 -117 66 -258 200 -317 302 -71 122 -86 180 -91 344 -6 202 11 275 95 423 89 156 271 313 409 353 32 10 76 24 97 31 51 19 287 19 342 0 22 -7 65 -22 94 -31 180 -60 395 -259 468 -434 27 -64 63 -230 63 -291 0 -90 -6 -88 -215 63 -238 172 -338 238 -345 230 -4 -4 -58 -80 -120 -168 -63 -88 -128 -180 -147 -204 -18 -24 -33 -48 -33 -52 0 -5 10 -15 23 -24 68 -50 361 -259 480 -343 76 -53 160 -113 186 -132 27 -19 105 -74 172 -122 133 -94 184 -131 266 -190 29 -21 56 -38 62 -38 5 0 28 26 50 58 134 189 236 405 265 559 9 48 21 107 27 131 5 24 10 120 10 214 0 146 -4 193 -27 307 -73 373 -304 717 -623 928 -47 31 -90 60 -95 64 -8 7 42 34 109 60 98 37 137 55 146 65 8 9 -18 66 -91 203 -55 105 -104 199 -108 208 -7 18 -74 141 -98 180 l-13 21 -70 -29 c-124 -52 -337 -60 -482 -18 -124 35 -294 142 -385 240 -122 133 -204 337 -204 509 0 196 103 426 255 572 160 152 318 217 535 217 209 0 402 -82 561 -241 85 -83 163 -199 125 -185 -14 5 -15 3 -6 -13 6 -11 13 -20 16 -20 3 0 2 5 -1 10 -3 6 -1 10 5 10 11 0 49 -77 70 -143 6 -21 15 -94 18 -163 l7 -126 40 -14 c22 -7 57 -14 77 -14 20 0 49 -5 65 -11 15 -6 57 -15 93 -20 221 -27 310 -39 349 -45 32 -5 45 -3 52 7 13 20 11 316 -2 401 -19 119 -93 346 -147 450 -133 255 -320 457 -557 600 -102 61 -268 134 -346 152 -41 9 -90 21 -109 26 -113 27 -169 34 -290 36 -93 2 -151 -2 -185 -11z m-744 -2648 c178 -122 168 -112 145 -130 -11 -10 -25 -17 -31 -17 -6 0 -53 -18 -103 -39 -95 -41 -132 -47 -132 -23 0 7 4 11 8 8 5 -3 13 9 19 27 10 28 16 56 39 175 5 28 13 28 55 -1z"/>
</g>
<g id="layer102" fill="#85c86a" stroke="none">
<path d="M3859 4846 c-60 -23 -95 -44 -142 -84 -39 -34 -53 -40 -113 -46 -86 -9 -140 -32 -198 -86 -91 -84 -95 -201 -11 -285 52 -52 134 -92 205 -101 50 -6 59 -11 105 -61 65 -71 164 -113 264 -113 102 0 216 51 275 124 33 40 42 44 94 51 119 15 229 95 257 188 18 61 9 105 -34 164 -53 74 -119 108 -227 119 -62 6 -73 11 -112 46 -70 64 -142 92 -242 95 -54 2 -98 -3 -121 -11z"/>
</g>
<g id="layer103" fill="#abd3e2" stroke="none">
<path d="M4271 5706 c2 -2 20 -6 39 -10 25 -4 31 -3 20 4 -14 9 -69 15 -59 6z"/>
<path d="M4571 5606 c10 -9 69 -36 69 -32 0 6 -55 36 -66 36 -4 0 -5 -2 -3 -4z"/>
<path d="M4720 5527 c3 -3 30 -22 60 -42 30 -20 47 -28 38 -18 -10 11 -37 30 -60 43 -24 13 -41 21 -38 17z"/>
<path d="M4995 5310 c38 -38 72 -70 74 -70 3 0 -26 32 -64 70 -38 39 -72 70 -74 70 -3 0 26 -31 64 -70z"/>
<path d="M2880 5305 c-24 -25 -42 -45 -39 -45 3 0 25 20 49 45 24 25 42 45 39 45 -3 0 -25 -20 -49 -45z"/>
<path d="M2615 4950 c-9 -16 -13 -30 -11 -30 3 0 12 14 21 30 9 17 13 30 11 30 -3 0 -12 -13 -21 -30z"/>
<path d="M3859 4846 c-60 -23 -95 -44 -142 -84 -39 -34 -53 -40 -113 -46 -86 -9 -140 -32 -198 -86 -91 -84 -95 -201 -11 -285 52 -52 134 -92 205 -101 50 -6 59 -11 105 -61 65 -71 164 -113 264 -113 102 0 216 51 275 124 33 40 42 44 94 51 119 15 229 95 257 188 18 61 9 105 -34 164 -53 74 -119 108 -227 119 -62 6 -73 11 -112 46 -70 64 -142 92 -242 95 -54 2 -98 -3 -121 -11z m208 -57 c58 -25 89 -52 114 -101 23 -45 24 -99 4 -138 -18 -35 -31 -36 -105 -10 -75 27 -143 25 -226 -5 -38 -14 -71 -25 -74 -25 -17 0 -40 64 -40 110 0 140 179 232 327 169z m-412 -176 c1 -52 6 -69 31 -105 l31 -43 -24 -34 c-13 -19 -28 -52 -34 -75 -14 -54 -30 -65 -79 -56 -59 11 -114 52 -139 102 -26 54 -26 100 -2 153 29 64 128 127 191 122 23 -2 24 -6 25 -64z m738 42 c52 -25 106 -83 118 -129 23 -84 -15 -157 -107 -208 -78 -44 -124 -37 -124 18 0 34 -30 107 -49 119 -6 3 3 26 19 52 24 38 30 58 30 103 0 31 3 60 8 64 10 11 64 1 105 -19z m-364 -156 c103 -23 179 -115 169 -204 -7 -60 -52 -119 -112 -150 -69 -35 -172 -35 -236 -1 -66 34 -110 103 -110 171 0 45 5 60 33 96 62 81 152 112 256 88z"/>
<path d="M3410 4793 l-55 -58 58 55 c31 30 57 56 57 57 0 8 -10 -1 -60 -54z"/>
<path d="M4410 4847 c0 -2 15 -16 33 -33 l32 -29 -29 33 c-28 30 -36 37 -36 29z"/>
<path d="M1643 4813 c9 -2 25 -2 35 0 9 3 1 5 -18 5 -19 0 -27 -2 -17 -5z"/>
<path d="M4480 4777 c0 -2 15 -16 33 -33 l32 -29 -29 33 c-28 30 -36 37 -36 29z"/>
<path d="M2295 4603 c26 -24 88 -65 73 -47 -9 10 -32 28 -50 38 -18 10 -28 15 -23 9z"/>
<path d="M4621 4589 c5 -10 12 -19 15 -19 3 0 3 4 0 9 -4 5 -1 11 6 13 7 3 3 7 -10 10 -19 5 -20 4 -11 -13z"/>
<path d="M2464 4512 c-10 -15 -13 -15 -30 -2 -18 13 -18 13 -1 -5 16 -18 18 -18 34 -2 9 9 15 19 12 21 -3 3 -10 -3 -15 -12z"/>
<path d="M509 4443 l-34 -38 38 34 c20 19 37 36 37 38 0 8 -8 0 -41 -34z"/>
<path d="M5444 4245 c0 -55 1 -76 3 -47 2 29 2 74 0 100 -2 26 -3 2 -3 -53z"/>
<path d="M4701 4172 c-1 -23 19 -52 37 -52 15 1 15 2 -1 11 -10 6 -22 20 -27 32 -5 12 -9 16 -9 9z"/>
<path d="M5118 4063 c12 -2 30 -2 40 0 9 3 -1 5 -23 4 -22 0 -30 -2 -17 -4z"/>
<path d="M5233 4043 c15 -2 37 -2 50 0 12 2 0 4 -28 4 -27 0 -38 -2 -22 -4z"/>
<path d="M3440 3675 c19 -19 36 -35 39 -35 3 0 -10 16 -29 35 -19 19 -36 35 -39 35 -3 0 10 -16 29 -35z"/>
<path d="M3888 3483 c28 -2 76 -2 105 0 28 2 5 3 -53 3 -58 0 -81 -1 -52 -3z"/>
<path d="M4372 2812 c-9 -6 -5 -12 15 -20 25 -11 26 -11 10 2 -14 10 -15 15 -5 19 7 3 9 6 3 6 -5 0 -16 -3 -23 -7z"/>
<path d="M3553 2273 c32 -2 81 -2 110 0 29 2 3 3 -58 3 -60 0 -84 -1 -52 -3z"/>
<path d="M4155 2040 c33 -33 62 -60 64 -60 3 0 -21 27 -54 60 -33 33 -62 60 -64 60 -3 0 21 -27 54 -60z"/>
<path d="M685 2070 c7 -11 65 -43 65 -36 0 2 -16 13 -36 25 -19 12 -32 16 -29 11z"/>
<path d="M2145 1974 c-22 -13 -35 -24 -30 -24 6 0 28 11 50 25 22 13 36 24 30 24 -5 -1 -28 -12 -50 -25z"/>
<path d="M1151 1866 c2 -2 20 -6 39 -10 25 -4 31 -3 20 4 -14 9 -69 15 -59 6z"/>
<path d="M1448 1833 c34 -2 90 -2 125 0 34 2 6 3 -63 3 -69 0 -97 -1 -62 -3z"/>
<path d="M3960 1777 c0 -3 17 -17 37 -33 20 -15 33 -23 29 -16 -8 13 -66 56 -66 49z"/>
<path d="M2123 1630 c0 -25 2 -35 4 -22 2 12 2 32 0 45 -2 12 -4 2 -4 -23z"/>
<path d="M3680 1620 c-12 -16 -19 -30 -16 -30 2 0 14 14 26 30 12 17 19 30 16 30 -2 0 -14 -13 -26 -30z"/>
<path d="M4140 1646 c0 -2 30 -25 66 -50 36 -26 63 -42 59 -36 -7 12 -125 93 -125 86z"/>
<path d="M4378 1530 c-1 -28 0 -50 5 -50 4 0 7 23 7 50 0 65 -7 65 -12 0z"/>
<path d="M4284 1541 c3 -5 22 -18 42 -30 19 -12 33 -17 30 -12 -3 5 -22 18 -42 30 -19 12 -33 17 -30 12z"/>
<path d="M2123 1380 c0 -25 2 -35 4 -22 2 12 2 32 0 45 -2 12 -4 2 -4 -23z"/>
<path d="M3567 1339 c12 -15 73 -53 73 -46 0 2 -19 17 -42 32 -24 16 -38 22 -31 14z"/>
<path d="M3115 940 c21 -22 41 -40 44 -40 3 0 -13 18 -34 40 -21 22 -41 40 -44 40 -3 0 13 -18 34 -40z"/>
<path d="M3320 806 c14 -7 36 -16 50 -20 14 -3 7 3 -15 13 -45 22 -73 27 -35 7z"/>
<path d="M3598 743 c18 -2 45 -2 60 0 15 2 0 4 -33 4 -33 0 -45 -2 -27 -4z"/>
<path d="M4709 528 c7 -10 23 -17 35 -17 20 1 20 2 1 6 -11 3 -27 10 -35 17 -13 10 -13 9 -1 -6z"/>
<path d="M2555 450 c44 -44 82 -80 85 -80 2 0 -31 36 -75 80 -44 44 -82 80 -85 80 -2 0 31 -36 75 -80z"/>
<path d="M2860 216 c0 -3 14 -12 30 -21 17 -9 30 -13 30 -11 0 3 -13 12 -30 21 -16 9 -30 13 -30 11z"/>
<path d="M3300 40 c34 -11 60 -11 35 0 -11 5 -29 8 -40 8 -16 0 -15 -2 5 -8z"/>
<path d="M3408 23 c12 -2 32 -2 45 0 12 2 2 4 -23 4 -25 0 -35 -2 -22 -4z"/>
<path d="M3788 23 c12 -2 30 -2 40 0 9 3 -1 5 -23 4 -22 0 -30 -2 -17 -4z"/>
<path d="M3588 13 c23 -2 59 -2 80 0 20 2 1 4 -43 4 -44 0 -61 -2 -37 -4z"/>
</g>


</svg>