<svg width="512" height="512" xmlns="http://www.w3.org/2000/svg" xmlns:xlink="http://www.w3.org/1999/xlink" overflow="hidden"><defs><clipPath id="clip0"><rect x="0" y="0" width="512" height="512"/></clipPath></defs><g clip-path="url(#clip0)"><path d="M496 120 267.312 120 221.656 74.344C220.16 72.84 218.128 72 216 72L120 72C118.424 72 116.872 72.472 115.56 73.344L45.576 120 16 120C11.576 120 8 123.584 8 128L8 240C8 244.416 11.576 248 16 248L152 248 152 304C152 308.416 155.576 312 160 312L496 312C500.424 312 504 308.416 504 304L504 128C504 123.584 500.424 120 496 120ZM24 232 24 136 48 136C49.576 136 51.128 135.528 52.44 134.656L122.424 88 212.688 88 244.688 120 160 120C155.576 120 152 123.584 152 128L152 192C152 196.416 155.576 200 160 200L216 200C224.824 200 232 207.176 232 216 232 224.824 224.824 232 216 232ZM376 216C376 242.472 354.472 264 328 264 301.528 264 280 242.472 280 216 280 189.528 301.528 168 328 168 354.472 168 376 189.528 376 216ZM370.192 168 456 168 456 264 370.192 264C383.528 252.264 392 235.12 392 216 392 196.88 383.528 179.736 370.192 168ZM264 216C264 235.12 272.472 252.264 285.808 264L200 264 200 248 216 248C233.648 248 248 233.648 248 216 248 198.352 233.648 184 216 184L200 184 200 168 285.808 168C272.472 179.736 264 196.88 264 216ZM488 296 168 296 168 248 184 248 184 272C184 276.416 187.576 280 192 280L464 280C468.424 280 472 276.416 472 272L472 160C472 155.584 468.424 152 464 152L192 152C187.576 152 184 155.584 184 160L184 184 168 184 168 136 488 136Z" fill="#1B6AB5"/><path d="M499.832 384.984 444.84 354.904C432.632 347.768 418.688 344 404.528 344L402.568 344C394.784 344 387.056 345.136 379.576 347.368L322.776 364.408C313.088 367.312 306.144 375.256 304.416 384.904L243.096 334.736C237.784 330.4 231.072 328 224.192 328L221.856 328C205.4 328 192 341.392 192 357.856 192 366.664 195.848 374.968 202.576 380.656L298.832 462.104C300.272 463.328 302.112 464 304 464L429.704 464 491.76 502.784C493.056 503.592 494.52 504 496 504 497.336 504 498.672 503.664 499.872 503 502.424 501.584 504 498.912 504 496L504 392C504 389.072 502.408 386.384 499.832 384.984ZM488 481.568 436.24 449.216C434.968 448.424 433.504 448 432 448L306.928 448 212.904 368.44C209.792 365.808 208 361.944 208 357.856 208 350.216 214.216 344 221.856 344L224.192 344C227.376 344 230.496 345.112 232.976 347.136L314.936 414.192C316.368 415.36 318.16 416 320 416L384 416 384 400 330.352 400C324.64 400 320 395.36 320 389.656 320 385.048 322.96 381.064 327.376 379.744L384.176 362.704C390.152 360.912 396.344 360.008 402.576 360.008L404.536 360.008C415.864 360.008 427.016 363.024 436.984 368.84L488 396.744Z" fill="#1B6AB5"/><path d="M381.472 63.592C393.896 67.736 403.2 77.784 406.376 90.488L408.24 97.944C409.136 101.504 412.328 104 416 104 419.672 104 422.864 101.504 423.76 97.944L425.624 90.488C428.8 77.792 438.112 67.736 450.528 63.592 453.8 62.496 456 59.44 456 56 456 52.56 453.8 49.504 450.528 48.408 438.104 44.264 428.8 34.216 425.624 21.512L423.76 14.056C422.864 10.496 419.672 8 416 8 412.328 8 409.136 10.496 408.24 14.056L406.376 21.512C403.2 34.208 393.888 44.264 381.472 48.408 378.2 49.504 376 52.56 376 56 376 59.44 378.2 62.496 381.472 63.592ZM416 39.824C419.744 46.168 424.736 51.672 430.696 56 424.736 60.328 419.744 65.832 416 72.176 412.256 65.832 407.264 60.328 401.304 56 407.264 51.672 412.256 46.168 416 39.824Z" fill="#1B6AB5"/><path d="M130.528 352.408C118.104 348.264 108.8 338.216 105.624 325.512L103.76 318.056C102.864 314.496 99.672 312 96 312 92.328 312 89.136 314.496 88.24 318.056L86.376 325.512C83.2 338.208 73.888 348.264 61.472 352.408 58.2 353.504 56 356.56 56 360 56 363.44 58.2 366.496 61.472 367.592 73.896 371.736 83.2 381.784 86.376 394.488L88.24 401.944C89.136 405.504 92.328 408 96 408 99.672 408 102.864 405.504 103.76 401.944L105.624 394.488C108.8 381.792 118.112 371.736 130.528 367.592 133.8 366.496 136 363.44 136 360 136 356.56 133.8 353.504 130.528 352.408ZM96 376.176C92.256 369.824 87.264 364.328 81.304 360 87.264 355.672 92.256 350.168 96 343.824 99.744 350.176 104.736 355.672 110.696 360 104.736 364.328 99.744 369.832 96 376.176Z" fill="#1B6AB5"/></g></svg>