<svg width="98" height="98" xmlns="http://www.w3.org/2000/svg" xmlns:xlink="http://www.w3.org/1999/xlink" overflow="hidden"><defs><clipPath id="clip0"><rect x="0" y="0" width="98" height="98"/></clipPath></defs><g clip-path="url(#clip0)"><path d="M49 0C76.0439 0 98 21.9561 98 49 98 76.0439 76.0439 98 49 98 21.9561 98 0 76.0439 0 49 0 21.9561 21.9561 0 49 0ZM49 4.08333C73.7899 4.08333 93.9167 24.2101 93.9167 49 93.9167 73.7899 73.7899 93.9167 49 93.9167 24.2101 93.9167 4.08333 73.7899 4.08333 49 4.08333 24.2101 24.2101 4.08333 49 4.08333ZM77.5833 34.5327 40.8129 73.5898 20.4167 49.6411 23.5241 46.991 40.964 67.473 74.6107 31.7357 77.5833 34.5327Z" fill="#1B6AB5" fill-rule="evenodd"/></g></svg>