<svg width="119" height="93" xmlns="http://www.w3.org/2000/svg" xmlns:xlink="http://www.w3.org/1999/xlink" overflow="hidden"><defs><clipPath id="clip0"><rect x="0" y="0" width="119" height="93"/></clipPath></defs><g clip-path="url(#clip0)"><path d="M118.68 47.7977C118.501 47.4958 118.249 47.2438 117.948 47.0645L118.073 47.0645 41.2938 0.403533C40.6461 0.0280981 39.8469 0.0280981 39.1992 0.403533L1.168 20.7193C0.132359 21.2348-0.289257 22.4922 0.226219 23.5279 0.39658 23.8702 0.657408 24.1593 0.980478 24.3639L77.8638 72.16C78.5134 72.5633 79.3314 72.5793 79.9963 72.2019L117.945 50.6683C118.94 50.0791 119.269 48.7945 118.681 47.7989 118.68 47.7985 118.68 47.7981 118.68 47.7977ZM79.0986 68.0167 6.33272 22.7072 40.1438 4.59276 112.783 48.812Z" fill="#1B6AB5"/><path d="M118.723 58.0034C118.148 56.9991 116.868 56.6505 115.865 57.2246 115.862 57.2259 115.86 57.2271 115.858 57.2284L115.984 57.2284 79.1195 78.1746 3.23767 30.9819C2.26517 30.3413 0.957539 30.6103 0.316883 31.5827-0.323768 32.5552-0.0548592 33.8629 0.917639 34.5035 0.937988 34.5169 0.958633 34.5301 0.979481 34.5427L77.8638 82.3438C78.5134 82.7471 79.3314 82.7632 79.9963 82.3857L117.945 60.873C118.951 60.2946 119.299 59.0108 118.723 58.0034Z" fill="#1B6AB5"/><path d="M118.274 68.1084C117.726 67.4242 116.812 67.1529 115.98 67.4282L79.0128 88.3743 3.23767 41.1647C2.26517 40.5241 0.957539 40.7931 0.316883 41.7655-0.323768 42.738-0.0548592 44.0457 0.917639 44.6864 0.937988 44.6997 0.958633 44.7129 0.979481 44.7256L77.8638 92.5685C78.5134 92.9715 79.3314 92.9875 79.9963 92.6104L117.945 71.0569C118.849 70.3364 118.999 69.0186 118.279 68.1135 118.278 68.1118 118.276 68.1101 118.275 68.1084Z" fill="#1B6AB5"/><path d="M71.536 25.0412C70.8151 24.1407 69.5007 23.9952 68.6002 24.7161 68.599 24.7171 68.5978 24.718 68.5966 24.719 68.54 24.7651 68.4857 24.814 68.434 24.8656L66.1968 26.9602C65.4972 26.3305 64.7079 25.8081 63.8548 25.4102 62.741 24.8847 61.5023 24.6815 60.279 24.8237 59.1991 24.9579 58.1859 25.4182 57.3745 26.1433 56.5326 26.8525 55.9751 27.8418 55.8045 28.9292 55.6582 30.0718 55.7798 31.2329 56.1596 32.3205 56.4703 33.2206 56.8333 34.1019 57.2468 34.9597L53.0646 38.708C53.0152 38.5649 52.9743 38.4191 52.9419 38.2712 52.784 37.2615 52.8923 36.2279 53.2561 35.2729 53.4274 34.8229 53.5261 34.3484 53.5483 33.8675 53.5297 33.4017 53.3354 32.9602 53.0047 32.6317 52.2572 31.7222 50.914 31.5909 50.0046 32.3385 49.9798 32.3589 49.9554 32.3798 49.9316 32.4013 49.2332 33.0672 48.7707 33.9426 48.614 34.8948 48.4075 36.1489 48.537 37.4354 48.989 38.6233 49.301 39.5174 49.73 40.3663 50.2647 41.1478L47.8599 43.2424C46.9923 44.0075 46.9092 45.3312 47.6744 46.1988 48.0745 46.6525 48.6513 46.9111 49.2563 46.9079L49.2144 46.9708C49.7316 46.9764 50.2324 46.7898 50.6198 46.4471L52.9828 44.3525C53.768 45.0924 54.647 45.7262 55.597 46.2377 58.0129 47.6084 61.0429 47.2247 63.0409 45.2951 63.745 44.6821 64.237 43.8619 64.4463 42.9521 64.6513 41.9246 64.6154 40.8635 64.3416 39.8521 63.966 38.457 63.4203 37.1132 62.7167 35.8514L62.7167 35.7257 66.1838 32.6047C66.2853 33.1728 66.2853 33.7543 66.1838 34.3223 66.0582 34.9571 65.9994 35.6033 66.0083 36.2504 66.031 36.7603 66.2392 37.2445 66.5938 37.6119 66.9884 38.1187 67.5668 38.4497 68.2036 38.5335 68.7649 38.5647 69.315 38.3684 69.7297 37.9889 70.1764 37.5646 70.4886 37.0183 70.6274 36.4179 70.7851 35.6509 70.7851 34.8599 70.6274 34.0929 70.4519 33.1008 70.1182 32.1433 69.6389 31.2572 69.423 30.8538 69.1856 30.4622 68.9278 30.0842L71.2069 27.9896C72.1117 27.2688 72.2609 25.9509 71.54 25.0462 71.5387 25.0445 71.5374 25.0429 71.536 25.0412ZM58.6901 42.0824C58.1451 42.4916 57.4348 42.6093 56.787 42.3975 56.3695 42.2917 55.9733 42.1146 55.616 41.8739L59.1499 38.7958C59.3019 39.184 59.4207 39.5844 59.505 39.9927 59.6308 40.7853 59.3193 41.5841 58.6901 42.0824ZM60.7598 31.8188C60.6621 31.4983 60.5993 31.1682 60.5722 30.8343 60.4743 30.2646 60.6804 29.6852 61.1158 29.3052 61.6095 28.8875 62.2895 28.7675 62.8963 28.991 63.1063 29.0631 63.3093 29.1542 63.5027 29.2633Z" fill="#1B6AB5"/></g></svg>