<svg width="496" height="496" xmlns="http://www.w3.org/2000/svg" xmlns:xlink="http://www.w3.org/1999/xlink" overflow="hidden"><defs><clipPath id="clip0"><rect x="0" y="0" width="496" height="496"/></clipPath></defs><g clip-path="url(#clip0)"><path d="M248 0C111.033 0 0 111.033 0 248 0.154 384.903 111.097 495.846 248 496 384.967 496 496 384.967 496 248 496 111.033 384.967 0 248 0ZM248 480C119.87 480 16 376.13 16 248 16.146 119.93 119.93 16.146 248 16 376.13 16 480 119.87 480 248 480 376.13 376.13 480 248 480Z" fill="#1B6AB5"/><path d="M400 240 256 240 256 96C256 91.582 252.418 88 248 88 243.582 88 240 91.582 240 96L240 240 96 240C91.582 240 88 243.582 88 248 88 252.418 91.582 256 96 256L240 256 240 400C240 404.418 243.582 408 248 408 252.418 408 256 404.418 256 400L256 256 400 256C404.418 256 408 252.418 408 248 408 243.582 404.418 240 400 240Z" fill="#1B6AB5"/></g></svg>